HIERARCHY
ROOT Hips
{
	OFFSET 0.000000 0.000000 0.000000
	CHANNELS 6 Xposition Yposition Zposition Zrotation Yrotation Xrotation 
	JOINT LHipJoint
	{
		OFFSET 0.000000 0.000000 0.000000
		CHANNELS 3 Zrotation Yrotation Xrotation
		JOINT LeftUpLeg
		{
			OFFSET 1.363060 -1.794630 0.839290
			CHANNELS 3 Zrotation Yrotation Xrotation
			JOINT LeftLeg
			{
				OFFSET 2.448110 -6.726130 0.000000
				CHANNELS 3 Zrotation Yrotation Xrotation
				JOINT LeftFoot
				{
					OFFSET 2.562200 -7.039590 0.000000
					CHANNELS 3 Zrotation Yrotation Xrotation
					JOINT LeftToeBase
					{
						OFFSET 0.157640 -0.433110 2.322550
						CHANNELS 3 Zrotation Yrotation Xrotation
						End Site
						{
							OFFSET 0.000000 0.000000 0.000000
						}
					}
				}
			}
		}
	}
	JOINT RHipJoint
	{
		OFFSET 0.000000 0.000000 0.000000
		CHANNELS 3 Zrotation Yrotation Xrotation
		JOINT RightUpLeg
		{
			OFFSET -1.305520 -1.794630 0.839290
			CHANNELS 3 Zrotation Yrotation Xrotation
			JOINT RightLeg
			{
				OFFSET -2.542530 -6.985550 0.000000
				CHANNELS 3 Zrotation Yrotation Xrotation
				JOINT RightFoot
				{
					OFFSET -2.568260 -7.056230 0.000000
					CHANNELS 3 Zrotation Yrotation Xrotation
					JOINT RightToeBase
					{
						OFFSET -0.164730 -0.452590 2.363150
						CHANNELS 3 Zrotation Yrotation Xrotation
						End Site
						{
							OFFSET 0.000000 0.000000 0.000000
						}
					}
				}
			}
		}
	}
	JOINT LowerBack
	{
		OFFSET 0.000000 0.000000 0.000000
		CHANNELS 3 Zrotation Yrotation Xrotation
		JOINT Spine
		{
			OFFSET 0.028270 2.035590 -0.193380
			CHANNELS 3 Zrotation Yrotation Xrotation
			JOINT Spine1
			{
				OFFSET 0.056720 2.048850 -0.042750
				CHANNELS 3 Zrotation Yrotation Xrotation
				JOINT Neck
				{
					OFFSET 0.000000 0.000000 0.000000
					CHANNELS 3 Zrotation Yrotation Xrotation
					JOINT Neck1
					{
						OFFSET -0.054170 1.746240 0.172020
						CHANNELS 3 Zrotation Yrotation Xrotation
						JOINT Head
						{
							OFFSET 0.104070 1.761360 -0.123970
							CHANNELS 3 Zrotation Yrotation Xrotation
							End Site
							{
								OFFSET 0.000000 0.000000 0.000000
							}
						}
					}
				}
				JOINT LeftShoulder
				{
					OFFSET 0.000000 0.000000 0.000000
					CHANNELS 3 Zrotation Yrotation Xrotation
					JOINT LeftArm
					{
						OFFSET 3.362410 1.200890 -0.311210
						CHANNELS 3 Zrotation Yrotation Xrotation
						JOINT LeftForeArm
						{
							OFFSET 4.983000 -0.000000 -0.000000
							CHANNELS 3 Zrotation Yrotation Xrotation
							JOINT LeftHand
							{
								OFFSET 3.483560 -0.000000 -0.000000
								CHANNELS 3 Zrotation Yrotation Xrotation
								JOINT LeftFingerBase
								{
									OFFSET 0.000000 0.000000 0.000000
									CHANNELS 3 Zrotation Yrotation Xrotation
									JOINT LeftHandIndex1
									{
										OFFSET 0.715260 -0.000000 -0.000000
										CHANNELS 3 Zrotation Yrotation Xrotation
										End Site
										{
											OFFSET 0.000000 0.000000 0.000000
										}
									}
								}
								JOINT LThumb
								{
									OFFSET 0.000000 0.000000 0.000000
									CHANNELS 3 Zrotation Yrotation Xrotation
									End Site
									{
										OFFSET 0.000000 0.000000 0.000000
									}
								}
							}
						}
					}
				}
				JOINT RightShoulder
				{
					OFFSET 0.000000 0.000000 0.000000
					CHANNELS 3 Zrotation Yrotation Xrotation
					JOINT RightArm
					{
						OFFSET -3.136600 1.374050 -0.404650
						CHANNELS 3 Zrotation Yrotation Xrotation
						JOINT RightForeArm
						{
							OFFSET -5.241900 -0.000000 -0.000000
							CHANNELS 3 Zrotation Yrotation Xrotation
							JOINT RightHand
							{
								OFFSET -3.444170 -0.000000 -0.000000
								CHANNELS 3 Zrotation Yrotation Xrotation
								JOINT RightFingerBase
								{
									OFFSET 0.000000 0.000000 0.000000
									CHANNELS 3 Zrotation Yrotation Xrotation
									JOINT RightHandIndex1
									{
										OFFSET -0.622530 -0.000000 -0.000000
										CHANNELS 3 Zrotation Yrotation Xrotation
										End Site
										{
											OFFSET 0.000000 0.000000 0.000000
										}
									}
								}
								JOINT RThumb
								{
									OFFSET 0.000000 0.000000 0.000000
									CHANNELS 3 Zrotation Yrotation Xrotation
									End Site
									{
										OFFSET 0.000000 0.000000 0.000000
									}
								}
							}
						}
					}
				}
			}
		}
	}
}
MOTION
Frames: 5
Frame Time: 0.008333
-6.975349 17.801783 -3.019909 2.039476 14.617422 9.108410 -8.446336 -4.066180 -0.093061 -15.133473 -3.088726 -24.615760 3.129676 13.689853 39.996957 2.964526 -5.073511 3.398514 0.017800 0.862200 2.369800 5.639550 3.461197 -0.391628 5.483392 -6.379961 -29.956198 -20.208301 -20.264996 87.927689 1.347477 -6.010441 7.776789 -0.366900 3.891100 -10.770400 -2.150520 -0.164669 15.197998 1.203121 -0.465810 -2.199764 0.518783 -0.092968 -4.604976 -0.891563 -0.225098 -18.860028 1.877822 -1.026883 2.353980 -1.243100 -0.933300 7.575200 -5.309543 -5.224725 -1.042348 -67.779506 6.148874 32.402243 113.777285 -57.726849 -89.011506 -0.004652 -1.378225 -16.743252 16.569927 -8.598366 -2.194500 -7.125000 0.000000 0.000000 -7.168900 22.464100 3.915500 4.041497 4.506209 -2.369413 75.172094 -18.012133 37.847594 -71.284201 57.846675 -46.335469 1.307685 -1.398258 3.320161 -30.665323 6.952461 -5.211500 7.125000 0.000000 0.000000 -3.721300 -20.138500 -2.217200 
-6.876751 17.771115 -2.452603 1.935330 14.463656 9.288466 -8.560399 -3.873979 0.390276 -14.982626 -3.020011 -22.848740 3.050214 13.549812 39.580783 3.014698 -4.977249 1.847186 0.010400 0.659700 1.812800 5.462083 3.669071 -0.949353 5.490143 -5.714045 -32.651428 -20.242278 -20.312823 87.996519 1.444914 -6.163335 6.093393 -0.288000 3.451300 -9.537900 -2.022944 -0.254704 15.161818 1.223287 -0.526411 -2.224380 0.523067 -0.168069 -4.624827 -0.712291 0.103351 -19.178505 1.646531 -0.661546 2.317027 -1.357300 -0.784200 7.625700 -5.239388 -5.392371 -0.909230 -68.146733 3.388679 30.890207 115.715788 -56.950945 -90.608079 0.004580 -1.364819 -16.842220 16.645089 -8.413760 -2.150700 -7.125000 0.000000 0.000000 -7.126100 22.641100 3.862800 4.038583 4.534297 -2.461833 75.323461 -20.063392 36.747272 -71.946392 58.029887 -47.139449 1.365608 -1.363607 3.188917 -31.176670 6.708043 -5.150200 7.125000 0.000000 0.000000 -4.150200 -20.408500 -2.448800 
-6.775013 17.750914 -1.857560 2.197431 14.642971 9.595702 -8.703408 -3.651726 0.893987 -15.148420 -3.151572 -20.809524 2.863253 13.336028 38.870889 3.011210 -4.786879 0.735263 0.001300 0.228400 0.627400 5.247448 3.813263 -1.469947 5.162010 -5.410448 -35.089200 -20.066128 -20.368781 87.390456 1.460844 -6.086798 4.784123 -0.347000 3.785100 -10.472800 -2.254892 -0.450201 14.838723 1.244913 -0.786383 -2.244238 0.720331 -0.337188 -4.470612 -0.586407 0.409792 -19.474820 1.474929 -0.298921 2.312751 -1.452200 -0.631100 7.669700 -5.149178 -5.508247 -0.774677 -68.732707 0.860051 29.438915 118.021387 -56.008761 -92.416598 0.008448 -1.332164 -17.184222 16.868143 -8.390277 -2.182400 -7.125000 0.000000 0.000000 -6.967100 22.623100 3.778200 4.025933 4.535316 -2.546713 75.359030 -22.200966 35.794309 -73.043806 58.275217 -48.304099 1.398720 -1.312959 2.003777 -31.122676 7.029634 -5.322300 7.125000 0.000000 0.000000 -4.085900 -20.072700 -2.441600 
-6.666157 17.745053 -1.260842 2.369408 14.569452 9.858025 -8.848295 -3.427800 1.444027 -15.303692 -3.005830 -18.765314 2.600154 13.054708 37.906999 2.898317 -4.319175 0.072624 0.003300 -0.369200 -1.014600 5.073712 3.955355 -1.985933 4.825723 -4.672588 -37.264884 -19.666966 -20.427073 86.136873 1.471875 -6.029287 3.691008 -0.390500 4.012400 -11.111600 -2.435956 -0.577647 14.530503 1.281232 -0.947036 -2.261501 0.971320 -0.461386 -4.326748 -0.584636 0.703358 -19.779547 1.380188 0.096304 2.357163 -1.481800 -0.457700 7.745600 -5.041254 -5.594461 -0.648159 -69.546193 -1.456665 28.065669 120.606878 -54.869918 -94.389120 0.015120 -1.302150 -17.590377 16.994309 -8.043074 -2.100100 -7.125000 0.000000 0.000000 -6.887700 22.947200 3.683000 4.017268 4.530378 -2.623285 75.166896 -24.259902 35.098784 -74.630288 58.566674 -49.889982 1.464109 -1.227995 0.092934 -31.232906 7.100682 -5.365700 7.125000 0.000000 0.000000 -4.176800 -20.028000 -2.500300 
-6.557092 17.755938 -0.654600 2.430831 14.535519 10.009840 -9.001372 -3.178179 2.032967 -15.327049 -2.827861 -16.553089 2.255010 12.691873 36.658118 2.604513 -3.427692 0.090313 0.058300 -1.558500 -4.287100 4.938214 4.072826 -2.458635 4.614090 -3.959559 -39.117129 -19.045628 -20.475635 84.230501 1.479867 -5.990008 3.141336 -0.407900 4.100000 -11.358300 -2.568349 -0.744326 14.269750 1.350325 -1.150873 -2.273032 1.321725 -0.610192 -4.196488 -0.538374 1.044791 -20.007028 1.247212 0.538610 2.399372 -1.540600 -0.265100 7.804300 -4.911112 -5.668038 -0.522675 -70.458170 -3.537170 26.778438 123.229469 -53.598440 -96.364936 0.017995 -1.271054 -18.144645 17.106199 -7.648070 -2.001300 -7.125000 0.000000 0.000000 -6.815800 23.318600 3.585600 4.026602 4.500625 -2.686747 74.795772 -26.337178 34.591148 -77.061349 58.927000 -52.189276 1.515605 -1.109516 -2.340416 -30.890526 7.045496 -5.221100 7.125000 0.000000 0.000000 -3.945700 -20.204900 -2.345600 
